HIERARCHY
ROOT Hips
{
	OFFSET 0.00000 0.00000 0.00000
	CHANNELS 6 Xposition Yposition Zposition Zrotation Yrotation Xrotation 
	JOINT LHipJoint
	{
		OFFSET 0 0 0
		CHANNELS 3 Zrotation Yrotation Xrotation
		JOINT LeftUpLeg
		{
			OFFSET 1.36337 -1.57426 1.11036
			CHANNELS 3 Zrotation Yrotation Xrotation
			JOINT LeftLeg
			{
				OFFSET 2.38468 -6.55187 0.00000
				CHANNELS 3 Zrotation Yrotation Xrotation
				JOINT LeftFoot
				{
					OFFSET 2.37166 -6.51609 0.00000
					CHANNELS 3 Zrotation Yrotation Xrotation
					JOINT LeftToeBase
					{
						OFFSET 0.29078 -0.79891 2.01393
						CHANNELS 3 Zrotation Yrotation Xrotation
						End Site
						{
							OFFSET 0.00000 -0.00000 1.07924
						}
					}
				}
			}
		}
	}
	JOINT RHipJoint
	{
		OFFSET 0 0 0
		CHANNELS 3 Zrotation Yrotation Xrotation
		JOINT RightUpLeg
		{
			OFFSET -1.36349 -1.57426 1.11036
			CHANNELS 3 Zrotation Yrotation Xrotation
			JOINT RightLeg
			{
				OFFSET -2.29562 -6.30717 0.00000
				CHANNELS 3 Zrotation Yrotation Xrotation
				JOINT RightFoot
				{
					OFFSET -2.40985 -6.62100 0.00000
					CHANNELS 3 Zrotation Yrotation Xrotation
					JOINT RightToeBase
					{
						OFFSET -0.23197 -0.63733 1.92232
						CHANNELS 3 Zrotation Yrotation Xrotation
						End Site
						{
							OFFSET -0.00000 -0.00000 1.01562
						}
					}
				}
			}
		}
	}
	JOINT LowerBack
	{
		OFFSET 0 0 0
		CHANNELS 3 Zrotation Yrotation Xrotation
		JOINT Spine
		{
			OFFSET -0.08565 2.03602 -0.24562
			CHANNELS 3 Zrotation Yrotation Xrotation
			JOINT Spine1
			{
				OFFSET -0.00036 2.05693 0.00216
				CHANNELS 3 Zrotation Yrotation Xrotation
				JOINT Neck
				{
					OFFSET 0 0 0
					CHANNELS 3 Zrotation Yrotation Xrotation
					JOINT Neck1
					{
						OFFSET -0.03664 1.69515 0.31789
						CHANNELS 3 Zrotation Yrotation Xrotation
						JOINT Head
						{
							OFFSET 0.00932 1.70181 -0.46013
							CHANNELS 3 Zrotation Yrotation Xrotation
							End Site
							{
								OFFSET 0.01243 1.77620 -0.19377
							}
						}
					}
				}
				JOINT LeftShoulder
				{
					OFFSET 0 0 0
					CHANNELS 3 Zrotation Yrotation Xrotation
					JOINT LeftArm
					{
						OFFSET 3.74344 0.81315 -0.36647
						CHANNELS 3 Zrotation Yrotation Xrotation
						JOINT LeftForeArm
						{
							OFFSET 4.97185 -0.00000 -0.00000
							CHANNELS 3 Zrotation Yrotation Xrotation
							JOINT LeftHand
							{
								OFFSET 3.35811 -0.00000 0.00000
								CHANNELS 3 Zrotation Yrotation Xrotation
								JOINT LeftFingerBase
								{
									OFFSET 0 0 0
									CHANNELS 3 Zrotation Yrotation Xrotation
									JOINT LeftHandIndex1
									{
										OFFSET 0.62278 -0.00000 0.00000
										CHANNELS 3 Zrotation Yrotation Xrotation
										End Site
										{
											OFFSET 0.50210 -0.00000 0.00000
										}
									}
								}
								JOINT LThumb
								{
									OFFSET 0 0 0
									CHANNELS 3 Zrotation Yrotation Xrotation
									End Site
									{
										OFFSET 0.50976 -0.00000 0.50976
									}
								}
							}
						}
					}
				}
				JOINT RightShoulder
				{
					OFFSET 0 0 0
					CHANNELS 3 Zrotation Yrotation Xrotation
					JOINT RightArm
					{
						OFFSET -3.75385 0.50666 -0.06525
						CHANNELS 3 Zrotation Yrotation Xrotation
						JOINT RightForeArm
						{
							OFFSET -4.96493 -0.00000 -0.00000
							CHANNELS 3 Zrotation Yrotation Xrotation
							JOINT RightHand
							{
								OFFSET -3.34929 -0.00000 0.00000
								CHANNELS 3 Zrotation Yrotation Xrotation
								JOINT RightFingerBase
								{
									OFFSET 0 0 0
									CHANNELS 3 Zrotation Yrotation Xrotation
									JOINT RightHandIndex1
									{
										OFFSET -0.63804 -0.00000 0.00000
										CHANNELS 3 Zrotation Yrotation Xrotation
										End Site
										{
											OFFSET -0.51441 -0.00000 0.00000
										}
									}
								}
								JOINT RThumb
								{
									OFFSET 0 0 0
									CHANNELS 3 Zrotation Yrotation Xrotation
									End Site
									{
										OFFSET -0.52226 -0.00000 0.52226
									}
								}
							}
						}
					}
				}
			}
		}
	}
}
MOTION
Frames: 6
Frame Time: .0083333
-6.0023 12.7443 -0.8469 127.0180 72.0807 150.3360 0.0000 0.0000 0.0000 -16.5501 -22.8331 -76.8103 20.9324 19.9791 92.7270 3.1864 -4.8103 -32.7534 0.0655 -1.6515 -4.5433 0.0000 0.0000 0.0000 -11.6613 -22.3059 -79.6357 -21.6476 -19.9348 94.8222 -1.9949 10.8499 -25.4089 -0.3277 3.6791 -10.1756 8.7551 -2.1525 44.3309 -0.7169 2.8491 9.6107 -6.5956 1.9294 -9.4888 -11.2955 -12.3252 -28.1277 6.3012 -13.9145 17.6175 1.5130 -6.3018 11.5297 -0.0000 -0.0000 0.0000 -82.6406 -6.3752 51.3389 28.8542 -39.8908 -10.6671 -0.0000 0.0000 -30.5088 26.1163 -13.2241 -6.3990 -7.1250 0.0000 -0.0000 -0.8435 15.3147 0.5908 -0.0000 -0.0000 0.0000 7.7379 66.4308 -57.4828 -15.6550 25.0507 -3.4986 0.0000 -0.0000 -30.6708 -17.1423 -40.6668 11.3652 7.1250 -0.0000 -0.0000 28.2158 -70.0745 -17.3716
-5.9951 12.7581 -0.8440 126.1720 72.2036 149.5120 0.0000 0.0000 0.0000 -16.7061 -22.6880 -76.6648 20.9018 19.9805 92.6376 3.2188 -4.7164 -32.9435 0.0694 -1.6999 -4.6770 0.0000 0.0000 0.0000 -11.7502 -21.9779 -79.5954 -21.5833 -19.9398 94.6339 -2.0008 10.5276 -25.4276 -0.3201 3.6366 -10.0563 8.4282 -2.1164 44.2538 -0.6988 2.7384 9.6290 -6.3617 1.8803 -9.4816 -11.2753 -12.1467 -28.3357 6.3052 -13.6596 17.7133 1.5557 -6.1785 11.5778 0.0000 0.0000 0.0000 -82.7735 -6.3122 50.7591 28.8980 -39.9299 -10.6952 -0.0000 0.0000 -30.3709 26.3959 -12.8345 -6.2914 -7.1250 0.0000 -0.0000 -0.6225 15.7101 0.4307 0.0000 0.0000 0.0000 10.3188 66.5698 -54.2026 -16.5935 26.3187 -3.9054 0.0000 -0.0000 -32.1794 -13.4546 -36.4477 8.0893 7.1250 -0.0000 -0.0000 26.4323 -65.3441 -13.4192
-5.9857 12.7761 -0.8398 125.6590 72.3366 149.0290 0.0000 0.0000 0.0000 -16.7461 -22.5563 -76.5353 20.8467 19.9828 92.4764 3.2235 -4.4603 -33.0129 0.0630 -1.6200 -4.4566 0.0000 0.0000 0.0000 -11.6994 -21.6375 -79.5230 -21.4933 -19.9465 94.3698 -2.0119 10.1103 -25.4785 -0.3296 3.6899 -10.2059 8.1242 -2.1416 44.1536 -0.6425 2.5645 9.6087 -6.0717 1.7962 -9.5181 -11.3078 -11.8691 -28.3690 6.2886 -13.2565 17.7256 1.6377 -6.0011 11.5538 0.0000 0.0000 0.0000 -82.9347 -6.1829 50.2143 28.8360 -39.8745 -10.6554 -0.0000 0.0000 -30.3251 26.2884 -12.7606 -6.2268 -7.1250 0.0000 -0.0000 -0.6911 15.8044 0.4768 0.0000 0.0000 0.0000 14.1015 66.5601 -48.9048 -18.1855 28.3940 -4.6371 0.0000 -0.0000 -34.6520 -11.1432 -34.6466 6.3895 7.1250 -0.0000 -0.0000 26.9069 -63.1464 -12.3052
-5.9744 12.8006 -0.8328 125.4310 72.4827 148.6940 0.0000 0.0000 0.0000 -16.7526 -22.3872 -76.2125 20.7610 19.9861 92.2255 3.2274 -4.3392 -33.0554 0.0562 -1.5298 -4.2080 0.0000 0.0000 0.0000 -11.6039 -21.3007 -79.2053 -21.3870 -19.9538 94.0583 -2.0183 9.9750 -25.5145 -0.3375 3.7333 -10.3275 8.3277 -2.0554 44.1637 -0.8805 2.7250 9.6617 -6.5010 1.8807 -9.4221 -10.5242 -11.8675 -28.4739 6.1504 -13.5322 17.7361 1.4135 -6.0885 11.5299 -0.0000 -0.0000 0.0000 -82.2490 -6.4440 50.9376 28.7254 -39.7755 -10.5846 -0.0000 0.0000 -30.5872 26.1321 -12.7258 -6.1680 -7.1250 0.0000 -0.0000 -0.7962 15.8611 0.5483 -0.0000 -0.0000 0.0000 18.4317 65.5241 -44.2692 -20.1479 30.8201 -5.6069 0.0000 -0.0000 -36.8191 -9.6666 -32.7464 5.2642 7.1250 -0.0000 -0.0000 26.5673 -61.1080 -10.8575
-5.9615 12.8332 -0.8249 125.6860 72.6464 148.6950 0.0000 0.0000 0.0000 -16.6933 -22.2017 -75.6986 20.6492 19.9899 91.8983 3.2230 -4.3163 -33.0359 0.0504 -1.4491 -3.9855 0.0000 0.0000 0.0000 -11.4181 -20.9988 -78.6390 -21.2678 -19.9614 93.7092 -2.0338 10.0531 -25.6161 -0.3204 3.6385 -10.0619 8.2505 -2.1450 44.3021 -0.8159 2.6149 9.6664 -6.3463 1.8313 -9.4758 -10.5801 -11.7685 -28.4328 6.2112 -13.3992 17.8071 1.4718 -6.0246 11.5488 0.0000 -0.0000 0.0000 -82.2547 -6.3242 50.6892 28.5528 -39.6202 -10.4743 -0.0000 0.0000 -30.5907 25.8690 -12.5835 -6.0305 -7.1250 0.0000 -0.0000 -0.9675 16.0482 0.6625 0.0000 -0.0000 0.0000 22.1217 65.1393 -39.3253 -21.7386 32.6804 -6.4441 0.0000 -0.0000 -38.8131 -8.2431 -30.4103 4.1941 7.1250 -0.0000 -0.0000 25.9839 -58.7093 -9.0975
-5.9452 12.8751 -0.8153 125.9530 72.8235 148.6900 0.0000 0.0000 0.0000 -16.6598 -21.9516 -75.0949 20.5053 19.9939 91.4777 3.2220 -4.4182 -33.0123 0.0530 -1.4858 -4.0867 0.0000 0.0000 0.0000 -11.2293 -20.6257 -77.9908 -21.1264 -19.9695 93.2951 -2.0728 10.0027 -25.8615 -0.3130 3.5967 -9.9447 8.0596 -2.2520 44.5960 -0.7153 2.4470 9.5542 -6.0766 1.7381 -9.7189 -10.7860 -11.5845 -28.1815 6.3392 -13.1267 17.8180 1.6140 -5.9061 11.5138 -0.0000 -0.0000 0.0000 -82.3746 -6.0375 50.2135 28.2608 -39.3552 -10.2886 -0.0000 0.0000 -30.3622 25.6437 -12.3310 -5.8535 -7.1250 0.0000 -0.0000 -1.1062 16.3510 0.7502 -0.0000 -0.0000 0.0000 25.4974 64.6938 -34.0978 -23.0942 34.1916 -7.1911 0.0000 -0.0000 -40.9058 -9.3832 -31.6200 4.9515 7.1250 -0.0000 -0.0000 25.8426 -60.0440 -9.8788
